<svg xmlns="http://www.w3.org/2000/svg" xmlns:xlink="http://www.w3.org/1999/xlink" width="140" zoomAndPan="magnify" viewBox="0 0 104.88 44.999999" height="60" preserveAspectRatio="xMidYMid meet" version="1.0"><defs><g/><clipPath id="3017bcbbc1"><path d="M 0 0.0273438 L 104.761719 0.0273438 L 104.761719 44.972656 L 0 44.972656 Z M 0 0.0273438 " clip-rule="nonzero"/></clipPath></defs><g clip-path="url(#3017bcbbc1)"><path fill="#ffffff" d="M 0 0.0273438 L 104.878906 0.0273438 L 104.878906 52.464844 L 0 52.464844 Z M 0 0.0273438 " fill-opacity="1" fill-rule="nonzero"/><path fill="#ffffff" d="M 0 0.0273438 L 104.878906 0.0273438 L 104.878906 44.972656 L 0 44.972656 Z M 0 0.0273438 " fill-opacity="1" fill-rule="nonzero"/><path fill="#ffffff" d="M 0 0.0273438 L 104.878906 0.0273438 L 104.878906 44.972656 L 0 44.972656 Z M 0 0.0273438 " fill-opacity="1" fill-rule="nonzero"/></g><g fill="#545454" fill-opacity="1"><g transform="translate(6.662956, 26.990397)"><g><path d="M 2.296875 -1.53125 C 1.140625 -2.800781 0.5625 -4.359375 0.5625 -6.203125 C 0.5625 -8.046875 1.140625 -9.601562 2.296875 -10.875 C 3.460938 -12.144531 4.941406 -12.78125 6.734375 -12.78125 C 8.378906 -12.78125 9.734375 -12.265625 10.796875 -11.234375 L 10.796875 -20.828125 L 15.09375 -20.828125 L 15.09375 0 L 10.84375 0 L 10.84375 -1.40625 L 10.796875 -1.40625 C 9.734375 -0.226562 8.378906 0.359375 6.734375 0.359375 C 4.941406 0.359375 3.460938 -0.269531 2.296875 -1.53125 Z M 5.9375 -8.296875 C 5.382812 -7.753906 5.109375 -7.054688 5.109375 -6.203125 C 5.109375 -5.347656 5.375 -4.648438 5.90625 -4.109375 C 6.4375 -3.566406 7.140625 -3.296875 8.015625 -3.296875 C 8.859375 -3.296875 9.550781 -3.566406 10.09375 -4.109375 C 10.632812 -4.660156 10.90625 -5.359375 10.90625 -6.203125 C 10.90625 -7.054688 10.625 -7.753906 10.0625 -8.296875 C 9.507812 -8.847656 8.828125 -9.125 8.015625 -9.125 C 7.191406 -9.125 6.5 -8.847656 5.9375 -8.296875 Z M 5.9375 -8.296875 "/></g></g></g><g fill="#545454" fill-opacity="1"><g transform="translate(20.927191, 26.990397)"><g><path d="M 2.296875 -1.53125 C 1.140625 -2.800781 0.5625 -4.359375 0.5625 -6.203125 C 0.5625 -8.046875 1.140625 -9.601562 2.296875 -10.875 C 3.460938 -12.144531 4.941406 -12.78125 6.734375 -12.78125 C 8.378906 -12.78125 9.734375 -12.265625 10.796875 -11.234375 L 10.796875 -12.421875 L 15.09375 -12.421875 L 15.09375 0 L 10.84375 0 L 10.84375 -1.40625 L 10.796875 -1.40625 C 9.734375 -0.226562 8.378906 0.359375 6.734375 0.359375 C 4.941406 0.359375 3.460938 -0.269531 2.296875 -1.53125 Z M 5.9375 -8.296875 C 5.382812 -7.753906 5.109375 -7.054688 5.109375 -6.203125 C 5.109375 -5.347656 5.375 -4.648438 5.90625 -4.109375 C 6.4375 -3.566406 7.140625 -3.296875 8.015625 -3.296875 C 8.859375 -3.296875 9.550781 -3.566406 10.09375 -4.109375 C 10.632812 -4.660156 10.90625 -5.359375 10.90625 -6.203125 C 10.90625 -7.054688 10.625 -7.753906 10.0625 -8.296875 C 9.507812 -8.847656 8.828125 -9.125 8.015625 -9.125 C 7.191406 -9.125 6.5 -8.847656 5.9375 -8.296875 Z M 5.9375 -8.296875 "/></g></g></g><g fill="#545454" fill-opacity="1"><g transform="translate(35.191425, 26.990397)"><g><path d="M 2.1875 -12.421875 L 2.1875 -17.046875 L 6.46875 -17.046875 L 6.46875 -12.421875 L 9.078125 -12.421875 L 9.078125 -9.15625 L 6.46875 -9.15625 L 6.46875 -5.203125 C 6.46875 -4.054688 6.789062 -3.484375 7.4375 -3.484375 C 7.59375 -3.484375 7.757812 -3.515625 7.9375 -3.578125 C 8.113281 -3.648438 8.253906 -3.71875 8.359375 -3.78125 L 8.5 -3.875 L 9.5625 -0.40625 C 8.644531 0.101562 7.597656 0.359375 6.421875 0.359375 C 5.609375 0.359375 4.910156 0.21875 4.328125 -0.0625 C 3.753906 -0.34375 3.316406 -0.71875 3.015625 -1.1875 C 2.710938 -1.664062 2.5 -2.164062 2.375 -2.6875 C 2.25 -3.21875 2.1875 -3.785156 2.1875 -4.390625 L 2.1875 -9.15625 L 0.390625 -9.15625 L 0.390625 -12.421875 Z M 2.1875 -12.421875 "/></g></g></g><g fill="#545454" fill-opacity="1"><g transform="translate(42.480765, 26.990397)"><g><path d="M 2.296875 -1.53125 C 1.140625 -2.800781 0.5625 -4.359375 0.5625 -6.203125 C 0.5625 -8.046875 1.140625 -9.601562 2.296875 -10.875 C 3.460938 -12.144531 4.941406 -12.78125 6.734375 -12.78125 C 8.378906 -12.78125 9.734375 -12.265625 10.796875 -11.234375 L 10.796875 -12.421875 L 15.09375 -12.421875 L 15.09375 0 L 10.84375 0 L 10.84375 -1.40625 L 10.796875 -1.40625 C 9.734375 -0.226562 8.378906 0.359375 6.734375 0.359375 C 4.941406 0.359375 3.460938 -0.269531 2.296875 -1.53125 Z M 5.9375 -8.296875 C 5.382812 -7.753906 5.109375 -7.054688 5.109375 -6.203125 C 5.109375 -5.347656 5.375 -4.648438 5.90625 -4.109375 C 6.4375 -3.566406 7.140625 -3.296875 8.015625 -3.296875 C 8.859375 -3.296875 9.550781 -3.566406 10.09375 -4.109375 C 10.632812 -4.660156 10.90625 -5.359375 10.90625 -6.203125 C 10.90625 -7.054688 10.625 -7.753906 10.0625 -8.296875 C 9.507812 -8.847656 8.828125 -9.125 8.015625 -9.125 C 7.191406 -9.125 6.5 -8.847656 5.9375 -8.296875 Z M 5.9375 -8.296875 "/></g></g></g><g fill="#5e17eb" fill-opacity="1"><g transform="translate(17.902611, 33.831914)"><g><path d="M 4.484375 -2.390625 C 4.484375 -2.285156 4.441406 -2.195312 4.359375 -2.125 C 4.285156 -2.050781 4.191406 -2.015625 4.078125 -2.015625 L 1.109375 -2.015625 C 1.148438 -1.609375 1.304688 -1.28125 1.578125 -1.03125 C 1.847656 -0.78125 2.179688 -0.65625 2.578125 -0.65625 C 2.847656 -0.65625 3.066406 -0.691406 3.234375 -0.765625 C 3.398438 -0.847656 3.550781 -0.953125 3.6875 -1.078125 C 3.769531 -1.128906 3.851562 -1.15625 3.9375 -1.15625 C 4.03125 -1.15625 4.109375 -1.117188 4.171875 -1.046875 C 4.234375 -0.984375 4.265625 -0.90625 4.265625 -0.8125 C 4.265625 -0.695312 4.207031 -0.59375 4.09375 -0.5 C 3.9375 -0.332031 3.722656 -0.191406 3.453125 -0.078125 C 3.179688 0.0234375 2.90625 0.078125 2.625 0.078125 C 2.164062 0.078125 1.757812 -0.015625 1.40625 -0.203125 C 1.0625 -0.390625 0.796875 -0.65625 0.609375 -1 C 0.421875 -1.34375 0.328125 -1.734375 0.328125 -2.171875 C 0.328125 -2.640625 0.421875 -3.050781 0.609375 -3.40625 C 0.804688 -3.769531 1.066406 -4.046875 1.390625 -4.234375 C 1.710938 -4.429688 2.054688 -4.53125 2.421875 -4.53125 C 2.773438 -4.53125 3.109375 -4.4375 3.421875 -4.25 C 3.742188 -4.0625 4 -3.804688 4.1875 -3.484375 C 4.382812 -3.160156 4.484375 -2.796875 4.484375 -2.390625 Z M 2.421875 -3.78125 C 2.097656 -3.78125 1.820312 -3.691406 1.59375 -3.515625 C 1.363281 -3.335938 1.210938 -3.066406 1.140625 -2.703125 L 3.640625 -2.703125 L 3.640625 -2.765625 C 3.609375 -3.066406 3.472656 -3.3125 3.234375 -3.5 C 2.992188 -3.6875 2.722656 -3.78125 2.421875 -3.78125 Z M 2.421875 -3.78125 "/></g></g></g><g fill="#5e17eb" fill-opacity="1"><g transform="translate(25.717187, 33.831914)"><g><path d="M 3.828125 -0.625 C 3.878906 -0.5625 3.90625 -0.484375 3.90625 -0.390625 C 3.90625 -0.273438 3.863281 -0.175781 3.78125 -0.09375 C 3.695312 -0.0078125 3.609375 0.03125 3.515625 0.03125 C 3.378906 0.03125 3.265625 -0.03125 3.171875 -0.15625 L 2.046875 -1.578125 L 0.9375 -0.15625 C 0.894531 -0.09375 0.84375 -0.046875 0.78125 -0.015625 C 0.726562 0.00390625 0.671875 0.015625 0.609375 0.015625 C 0.515625 0.015625 0.425781 -0.015625 0.34375 -0.078125 C 0.257812 -0.148438 0.21875 -0.238281 0.21875 -0.34375 C 0.21875 -0.4375 0.25 -0.519531 0.3125 -0.59375 L 1.578125 -2.171875 L 0.28125 -3.8125 C 0.21875 -3.882812 0.1875 -3.960938 0.1875 -4.046875 C 0.1875 -4.160156 0.226562 -4.253906 0.3125 -4.328125 C 0.394531 -4.410156 0.488281 -4.453125 0.59375 -4.453125 C 0.726562 -4.453125 0.84375 -4.394531 0.9375 -4.28125 L 2.09375 -2.828125 L 3.171875 -4.28125 C 3.265625 -4.394531 3.375 -4.453125 3.5 -4.453125 C 3.601562 -4.453125 3.691406 -4.414062 3.765625 -4.34375 C 3.835938 -4.28125 3.875 -4.195312 3.875 -4.09375 C 3.875 -3.988281 3.84375 -3.90625 3.78125 -3.84375 L 2.53125 -2.25 Z M 3.828125 -0.625 "/></g></g></g><g fill="#545454" fill-opacity="1"><g transform="translate(32.813008, 33.831914)"><g><path d="M 2.828125 -4.5 C 3.203125 -4.5 3.546875 -4.398438 3.859375 -4.203125 C 4.171875 -4.015625 4.414062 -3.742188 4.59375 -3.390625 C 4.769531 -3.046875 4.859375 -2.65625 4.859375 -2.21875 C 4.859375 -1.78125 4.769531 -1.382812 4.59375 -1.03125 C 4.414062 -0.6875 4.171875 -0.414062 3.859375 -0.21875 C 3.546875 -0.0195312 3.207031 0.078125 2.84375 0.078125 C 2.550781 0.078125 2.273438 0.015625 2.015625 -0.109375 C 1.765625 -0.242188 1.5625 -0.40625 1.40625 -0.59375 L 1.40625 1.28125 C 1.40625 1.394531 1.363281 1.488281 1.28125 1.5625 C 1.207031 1.644531 1.113281 1.6875 1 1.6875 C 0.882812 1.6875 0.785156 1.648438 0.703125 1.578125 C 0.628906 1.503906 0.59375 1.40625 0.59375 1.28125 L 0.59375 -4.03125 C 0.59375 -4.144531 0.628906 -4.242188 0.703125 -4.328125 C 0.773438 -4.410156 0.875 -4.453125 1 -4.453125 C 1.113281 -4.453125 1.207031 -4.410156 1.28125 -4.328125 C 1.363281 -4.242188 1.40625 -4.144531 1.40625 -4.03125 L 1.40625 -3.78125 C 1.539062 -3.976562 1.738281 -4.144531 2 -4.28125 C 2.257812 -4.425781 2.535156 -4.5 2.828125 -4.5 Z M 2.734375 -0.671875 C 2.992188 -0.671875 3.226562 -0.738281 3.4375 -0.875 C 3.644531 -1.007812 3.804688 -1.191406 3.921875 -1.421875 C 4.035156 -1.660156 4.09375 -1.925781 4.09375 -2.21875 C 4.09375 -2.507812 4.035156 -2.769531 3.921875 -3 C 3.804688 -3.238281 3.644531 -3.425781 3.4375 -3.5625 C 3.226562 -3.695312 2.992188 -3.765625 2.734375 -3.765625 C 2.460938 -3.765625 2.222656 -3.695312 2.015625 -3.5625 C 1.804688 -3.425781 1.644531 -3.238281 1.53125 -3 C 1.414062 -2.769531 1.359375 -2.507812 1.359375 -2.21875 C 1.359375 -1.925781 1.414062 -1.660156 1.53125 -1.421875 C 1.644531 -1.179688 1.804688 -0.992188 2.015625 -0.859375 C 2.222656 -0.734375 2.460938 -0.671875 2.734375 -0.671875 Z M 2.734375 -0.671875 "/></g></g></g><g fill="#545454" fill-opacity="1"><g transform="translate(40.999716, 33.831914)"><g><path d="M 2.8125 -4.53125 C 2.957031 -4.53125 3.082031 -4.488281 3.1875 -4.40625 C 3.289062 -4.332031 3.34375 -4.242188 3.34375 -4.140625 C 3.34375 -4.003906 3.304688 -3.898438 3.234375 -3.828125 C 3.171875 -3.753906 3.085938 -3.71875 2.984375 -3.71875 C 2.929688 -3.71875 2.851562 -3.734375 2.75 -3.765625 C 2.632812 -3.804688 2.546875 -3.828125 2.484375 -3.828125 C 2.304688 -3.828125 2.132812 -3.765625 1.96875 -3.640625 C 1.800781 -3.523438 1.664062 -3.359375 1.5625 -3.140625 C 1.457031 -2.929688 1.40625 -2.695312 1.40625 -2.4375 L 1.40625 -0.40625 C 1.40625 -0.289062 1.363281 -0.191406 1.28125 -0.109375 C 1.207031 -0.0351562 1.113281 0 1 0 C 0.875 0 0.773438 -0.0351562 0.703125 -0.109375 C 0.628906 -0.191406 0.59375 -0.289062 0.59375 -0.40625 L 0.59375 -4.03125 C 0.59375 -4.132812 0.628906 -4.222656 0.703125 -4.296875 C 0.785156 -4.378906 0.882812 -4.421875 1 -4.421875 C 1.113281 -4.421875 1.207031 -4.378906 1.28125 -4.296875 C 1.363281 -4.222656 1.40625 -4.132812 1.40625 -4.03125 L 1.40625 -3.59375 C 1.53125 -3.863281 1.710938 -4.082031 1.953125 -4.25 C 2.203125 -4.425781 2.488281 -4.519531 2.8125 -4.53125 Z M 2.8125 -4.53125 "/></g></g></g><g fill="#545454" fill-opacity="1"><g transform="translate(47.486494, 33.831914)"><g><path d="M 4.484375 -2.390625 C 4.484375 -2.285156 4.441406 -2.195312 4.359375 -2.125 C 4.285156 -2.050781 4.191406 -2.015625 4.078125 -2.015625 L 1.109375 -2.015625 C 1.148438 -1.609375 1.304688 -1.28125 1.578125 -1.03125 C 1.847656 -0.78125 2.179688 -0.65625 2.578125 -0.65625 C 2.847656 -0.65625 3.066406 -0.691406 3.234375 -0.765625 C 3.398438 -0.847656 3.550781 -0.953125 3.6875 -1.078125 C 3.769531 -1.128906 3.851562 -1.15625 3.9375 -1.15625 C 4.03125 -1.15625 4.109375 -1.117188 4.171875 -1.046875 C 4.234375 -0.984375 4.265625 -0.90625 4.265625 -0.8125 C 4.265625 -0.695312 4.207031 -0.59375 4.09375 -0.5 C 3.9375 -0.332031 3.722656 -0.191406 3.453125 -0.078125 C 3.179688 0.0234375 2.90625 0.078125 2.625 0.078125 C 2.164062 0.078125 1.757812 -0.015625 1.40625 -0.203125 C 1.0625 -0.390625 0.796875 -0.65625 0.609375 -1 C 0.421875 -1.34375 0.328125 -1.734375 0.328125 -2.171875 C 0.328125 -2.640625 0.421875 -3.050781 0.609375 -3.40625 C 0.804688 -3.769531 1.066406 -4.046875 1.390625 -4.234375 C 1.710938 -4.429688 2.054688 -4.53125 2.421875 -4.53125 C 2.773438 -4.53125 3.109375 -4.4375 3.421875 -4.25 C 3.742188 -4.0625 4 -3.804688 4.1875 -3.484375 C 4.382812 -3.160156 4.484375 -2.796875 4.484375 -2.390625 Z M 2.421875 -3.78125 C 2.097656 -3.78125 1.820312 -3.691406 1.59375 -3.515625 C 1.363281 -3.335938 1.210938 -3.066406 1.140625 -2.703125 L 3.640625 -2.703125 L 3.640625 -2.765625 C 3.609375 -3.066406 3.472656 -3.3125 3.234375 -3.5 C 2.992188 -3.6875 2.722656 -3.78125 2.421875 -3.78125 Z M 2.421875 -3.78125 "/></g></g></g><g fill="#545454" fill-opacity="1"><g transform="translate(55.301069, 33.831914)"><g><path d="M 0.34375 -0.6875 C 0.289062 -0.769531 0.265625 -0.847656 0.265625 -0.921875 C 0.265625 -1.035156 0.328125 -1.128906 0.453125 -1.203125 C 0.503906 -1.242188 0.566406 -1.265625 0.640625 -1.265625 C 0.742188 -1.265625 0.835938 -1.222656 0.921875 -1.140625 C 1.085938 -0.953125 1.269531 -0.804688 1.46875 -0.703125 C 1.664062 -0.609375 1.894531 -0.5625 2.15625 -0.5625 C 2.375 -0.570312 2.5625 -0.625 2.71875 -0.71875 C 2.882812 -0.8125 2.96875 -0.960938 2.96875 -1.171875 C 2.96875 -1.359375 2.882812 -1.503906 2.71875 -1.609375 C 2.5625 -1.710938 2.320312 -1.804688 2 -1.890625 C 1.675781 -1.972656 1.410156 -2.0625 1.203125 -2.15625 C 0.992188 -2.25 0.816406 -2.382812 0.671875 -2.5625 C 0.535156 -2.738281 0.46875 -2.96875 0.46875 -3.25 C 0.46875 -3.507812 0.535156 -3.734375 0.671875 -3.921875 C 0.816406 -4.109375 1.007812 -4.253906 1.25 -4.359375 C 1.488281 -4.472656 1.75 -4.53125 2.03125 -4.53125 C 2.300781 -4.53125 2.570312 -4.476562 2.84375 -4.375 C 3.113281 -4.28125 3.332031 -4.125 3.5 -3.90625 C 3.5625 -3.832031 3.59375 -3.753906 3.59375 -3.671875 C 3.59375 -3.578125 3.550781 -3.488281 3.46875 -3.40625 C 3.40625 -3.351562 3.332031 -3.328125 3.25 -3.328125 C 3.15625 -3.328125 3.078125 -3.363281 3.015625 -3.4375 C 2.890625 -3.570312 2.738281 -3.675781 2.5625 -3.75 C 2.394531 -3.820312 2.207031 -3.859375 2 -3.859375 C 1.789062 -3.859375 1.609375 -3.8125 1.453125 -3.71875 C 1.304688 -3.632812 1.234375 -3.488281 1.234375 -3.28125 C 1.242188 -3.082031 1.328125 -2.9375 1.484375 -2.84375 C 1.648438 -2.75 1.90625 -2.65625 2.25 -2.5625 C 2.550781 -2.476562 2.800781 -2.390625 3 -2.296875 C 3.195312 -2.210938 3.363281 -2.082031 3.5 -1.90625 C 3.632812 -1.726562 3.703125 -1.492188 3.703125 -1.203125 C 3.703125 -0.941406 3.625 -0.710938 3.46875 -0.515625 C 3.320312 -0.328125 3.125 -0.179688 2.875 -0.078125 C 2.632812 0.0234375 2.375 0.078125 2.09375 0.078125 C 1.738281 0.078125 1.410156 0.0195312 1.109375 -0.09375 C 0.804688 -0.21875 0.550781 -0.414062 0.34375 -0.6875 Z M 0.34375 -0.6875 "/></g></g></g><g fill="#545454" fill-opacity="1"><g transform="translate(62.329118, 33.831914)"><g><path d="M 0.34375 -0.6875 C 0.289062 -0.769531 0.265625 -0.847656 0.265625 -0.921875 C 0.265625 -1.035156 0.328125 -1.128906 0.453125 -1.203125 C 0.503906 -1.242188 0.566406 -1.265625 0.640625 -1.265625 C 0.742188 -1.265625 0.835938 -1.222656 0.921875 -1.140625 C 1.085938 -0.953125 1.269531 -0.804688 1.46875 -0.703125 C 1.664062 -0.609375 1.894531 -0.5625 2.15625 -0.5625 C 2.375 -0.570312 2.5625 -0.625 2.71875 -0.71875 C 2.882812 -0.8125 2.96875 -0.960938 2.96875 -1.171875 C 2.96875 -1.359375 2.882812 -1.503906 2.71875 -1.609375 C 2.5625 -1.710938 2.320312 -1.804688 2 -1.890625 C 1.675781 -1.972656 1.410156 -2.0625 1.203125 -2.15625 C 0.992188 -2.25 0.816406 -2.382812 0.671875 -2.5625 C 0.535156 -2.738281 0.46875 -2.96875 0.46875 -3.25 C 0.46875 -3.507812 0.535156 -3.734375 0.671875 -3.921875 C 0.816406 -4.109375 1.007812 -4.253906 1.25 -4.359375 C 1.488281 -4.472656 1.75 -4.53125 2.03125 -4.53125 C 2.300781 -4.53125 2.570312 -4.476562 2.84375 -4.375 C 3.113281 -4.28125 3.332031 -4.125 3.5 -3.90625 C 3.5625 -3.832031 3.59375 -3.753906 3.59375 -3.671875 C 3.59375 -3.578125 3.550781 -3.488281 3.46875 -3.40625 C 3.40625 -3.351562 3.332031 -3.328125 3.25 -3.328125 C 3.15625 -3.328125 3.078125 -3.363281 3.015625 -3.4375 C 2.890625 -3.570312 2.738281 -3.675781 2.5625 -3.75 C 2.394531 -3.820312 2.207031 -3.859375 2 -3.859375 C 1.789062 -3.859375 1.609375 -3.8125 1.453125 -3.71875 C 1.304688 -3.632812 1.234375 -3.488281 1.234375 -3.28125 C 1.242188 -3.082031 1.328125 -2.9375 1.484375 -2.84375 C 1.648438 -2.75 1.90625 -2.65625 2.25 -2.5625 C 2.550781 -2.476562 2.800781 -2.390625 3 -2.296875 C 3.195312 -2.210938 3.363281 -2.082031 3.5 -1.90625 C 3.632812 -1.726562 3.703125 -1.492188 3.703125 -1.203125 C 3.703125 -0.941406 3.625 -0.710938 3.46875 -0.515625 C 3.320312 -0.328125 3.125 -0.179688 2.875 -0.078125 C 2.632812 0.0234375 2.375 0.078125 2.09375 0.078125 C 1.738281 0.078125 1.410156 0.0195312 1.109375 -0.09375 C 0.804688 -0.21875 0.550781 -0.414062 0.34375 -0.6875 Z M 0.34375 -0.6875 "/></g></g></g><g fill="#545454" fill-opacity="1"><g transform="translate(69.357167, 33.831914)"><g><path d="M 1.359375 -0.40625 C 1.359375 -0.289062 1.316406 -0.191406 1.234375 -0.109375 C 1.160156 -0.0351562 1.066406 0 0.953125 0 C 0.835938 0 0.742188 -0.0351562 0.671875 -0.109375 C 0.597656 -0.191406 0.5625 -0.289062 0.5625 -0.40625 L 0.5625 -4.0625 C 0.5625 -4.175781 0.597656 -4.269531 0.671875 -4.34375 C 0.742188 -4.425781 0.835938 -4.46875 0.953125 -4.46875 C 1.066406 -4.46875 1.160156 -4.425781 1.234375 -4.34375 C 1.316406 -4.269531 1.359375 -4.175781 1.359375 -4.0625 Z M 0.953125 -5.03125 C 0.785156 -5.03125 0.664062 -5.054688 0.59375 -5.109375 C 0.53125 -5.171875 0.5 -5.269531 0.5 -5.40625 L 0.5 -5.53125 C 0.5 -5.664062 0.535156 -5.757812 0.609375 -5.8125 C 0.679688 -5.875 0.796875 -5.90625 0.953125 -5.90625 C 1.109375 -5.90625 1.222656 -5.875 1.296875 -5.8125 C 1.367188 -5.757812 1.40625 -5.664062 1.40625 -5.53125 L 1.40625 -5.40625 C 1.40625 -5.269531 1.367188 -5.171875 1.296875 -5.109375 C 1.222656 -5.054688 1.109375 -5.03125 0.953125 -5.03125 Z M 0.953125 -5.03125 "/></g></g></g><g fill="#545454" fill-opacity="1"><g transform="translate(74.27087, 33.831914)"><g><path d="M 4.796875 -2.21875 C 4.796875 -1.78125 4.695312 -1.382812 4.5 -1.03125 C 4.300781 -0.675781 4.03125 -0.398438 3.6875 -0.203125 C 3.34375 -0.015625 2.96875 0.078125 2.5625 0.078125 C 2.144531 0.078125 1.765625 -0.015625 1.421875 -0.203125 C 1.085938 -0.398438 0.820312 -0.675781 0.625 -1.03125 C 0.425781 -1.382812 0.328125 -1.78125 0.328125 -2.21875 C 0.328125 -2.65625 0.425781 -3.050781 0.625 -3.40625 C 0.820312 -3.757812 1.085938 -4.035156 1.421875 -4.234375 C 1.765625 -4.429688 2.144531 -4.53125 2.5625 -4.53125 C 2.96875 -4.53125 3.34375 -4.429688 3.6875 -4.234375 C 4.03125 -4.035156 4.300781 -3.757812 4.5 -3.40625 C 4.695312 -3.050781 4.796875 -2.65625 4.796875 -2.21875 Z M 3.984375 -2.21875 C 3.984375 -2.519531 3.921875 -2.789062 3.796875 -3.03125 C 3.671875 -3.269531 3.5 -3.453125 3.28125 -3.578125 C 3.0625 -3.710938 2.820312 -3.78125 2.5625 -3.78125 C 2.289062 -3.78125 2.046875 -3.710938 1.828125 -3.578125 C 1.617188 -3.453125 1.445312 -3.269531 1.3125 -3.03125 C 1.1875 -2.789062 1.125 -2.519531 1.125 -2.21875 C 1.125 -1.914062 1.1875 -1.644531 1.3125 -1.40625 C 1.445312 -1.175781 1.617188 -0.992188 1.828125 -0.859375 C 2.046875 -0.722656 2.289062 -0.65625 2.5625 -0.65625 C 2.820312 -0.65625 3.0625 -0.722656 3.28125 -0.859375 C 3.5 -0.992188 3.671875 -1.175781 3.796875 -1.40625 C 3.921875 -1.644531 3.984375 -1.914062 3.984375 -2.21875 Z M 3.984375 -2.21875 "/></g></g></g><g fill="#545454" fill-opacity="1"><g transform="translate(82.389911, 33.831914)"><g><path d="M 2.859375 -4.53125 C 3.867188 -4.53125 4.375 -3.921875 4.375 -2.703125 L 4.375 -0.40625 C 4.375 -0.289062 4.335938 -0.191406 4.265625 -0.109375 C 4.191406 -0.0351562 4.09375 0 3.96875 0 C 3.851562 0 3.757812 -0.0351562 3.6875 -0.109375 C 3.613281 -0.191406 3.578125 -0.289062 3.578125 -0.40625 L 3.578125 -2.703125 C 3.578125 -3.023438 3.5 -3.285156 3.34375 -3.484375 C 3.195312 -3.679688 2.953125 -3.78125 2.609375 -3.78125 C 2.378906 -3.78125 2.171875 -3.726562 1.984375 -3.625 C 1.804688 -3.53125 1.664062 -3.398438 1.5625 -3.234375 C 1.457031 -3.078125 1.40625 -2.898438 1.40625 -2.703125 L 1.40625 -0.40625 C 1.40625 -0.289062 1.363281 -0.191406 1.28125 -0.109375 C 1.207031 -0.0351562 1.113281 0 1 0 C 0.875 0 0.773438 -0.0351562 0.703125 -0.109375 C 0.628906 -0.191406 0.59375 -0.289062 0.59375 -0.40625 L 0.59375 -4.03125 C 0.59375 -4.132812 0.628906 -4.222656 0.703125 -4.296875 C 0.785156 -4.378906 0.882812 -4.421875 1 -4.421875 C 1.113281 -4.421875 1.207031 -4.378906 1.28125 -4.296875 C 1.363281 -4.222656 1.40625 -4.132812 1.40625 -4.03125 L 1.40625 -3.734375 C 1.550781 -3.953125 1.753906 -4.140625 2.015625 -4.296875 C 2.273438 -4.453125 2.554688 -4.53125 2.859375 -4.53125 Z M 2.859375 -4.53125 "/></g></g></g><g fill="#545454" fill-opacity="1"><g transform="translate(90.365185, 33.831914)"><g><path d="M 0.34375 -0.6875 C 0.289062 -0.769531 0.265625 -0.847656 0.265625 -0.921875 C 0.265625 -1.035156 0.328125 -1.128906 0.453125 -1.203125 C 0.503906 -1.242188 0.566406 -1.265625 0.640625 -1.265625 C 0.742188 -1.265625 0.835938 -1.222656 0.921875 -1.140625 C 1.085938 -0.953125 1.269531 -0.804688 1.46875 -0.703125 C 1.664062 -0.609375 1.894531 -0.5625 2.15625 -0.5625 C 2.375 -0.570312 2.5625 -0.625 2.71875 -0.71875 C 2.882812 -0.8125 2.96875 -0.960938 2.96875 -1.171875 C 2.96875 -1.359375 2.882812 -1.503906 2.71875 -1.609375 C 2.5625 -1.710938 2.320312 -1.804688 2 -1.890625 C 1.675781 -1.972656 1.410156 -2.0625 1.203125 -2.15625 C 0.992188 -2.25 0.816406 -2.382812 0.671875 -2.5625 C 0.535156 -2.738281 0.46875 -2.96875 0.46875 -3.25 C 0.46875 -3.507812 0.535156 -3.734375 0.671875 -3.921875 C 0.816406 -4.109375 1.007812 -4.253906 1.25 -4.359375 C 1.488281 -4.472656 1.75 -4.53125 2.03125 -4.53125 C 2.300781 -4.53125 2.570312 -4.476562 2.84375 -4.375 C 3.113281 -4.28125 3.332031 -4.125 3.5 -3.90625 C 3.5625 -3.832031 3.59375 -3.753906 3.59375 -3.671875 C 3.59375 -3.578125 3.550781 -3.488281 3.46875 -3.40625 C 3.40625 -3.351562 3.332031 -3.328125 3.25 -3.328125 C 3.15625 -3.328125 3.078125 -3.363281 3.015625 -3.4375 C 2.890625 -3.570312 2.738281 -3.675781 2.5625 -3.75 C 2.394531 -3.820312 2.207031 -3.859375 2 -3.859375 C 1.789062 -3.859375 1.609375 -3.8125 1.453125 -3.71875 C 1.304688 -3.632812 1.234375 -3.488281 1.234375 -3.28125 C 1.242188 -3.082031 1.328125 -2.9375 1.484375 -2.84375 C 1.648438 -2.75 1.90625 -2.65625 2.25 -2.5625 C 2.550781 -2.476562 2.800781 -2.390625 3 -2.296875 C 3.195312 -2.210938 3.363281 -2.082031 3.5 -1.90625 C 3.632812 -1.726562 3.703125 -1.492188 3.703125 -1.203125 C 3.703125 -0.941406 3.625 -0.710938 3.46875 -0.515625 C 3.320312 -0.328125 3.125 -0.179688 2.875 -0.078125 C 2.632812 0.0234375 2.375 0.078125 2.09375 0.078125 C 1.738281 0.078125 1.410156 0.0195312 1.109375 -0.09375 C 0.804688 -0.21875 0.550781 -0.414062 0.34375 -0.6875 Z M 0.34375 -0.6875 "/></g></g></g></svg>