<svg xmlns="http://www.w3.org/2000/svg" xmlns:xlink="http://www.w3.org/1999/xlink" width="200" zoomAndPan="magnify" viewBox="0 0 150 44.999999" height="60" preserveAspectRatio="xMidYMid meet" version="1.0"><defs><g/></defs><rect x="-15" width="180" fill="#ffffff" y="-4.5" height="53.999999" fill-opacity="1"/><rect x="-15" width="180" fill="#ffffff" y="-4.5" height="53.999999" fill-opacity="1"/><rect x="-15" width="180" fill="#ffffff" y="-4.5" height="53.999999" fill-opacity="1"/><g fill="#004aad" fill-opacity="1"><g transform="translate(13.939716, 29.005831)"><g><path d="M 3.125 -2.078125 C 1.550781 -3.804688 0.765625 -5.921875 0.765625 -8.421875 C 0.765625 -10.929688 1.550781 -13.054688 3.125 -14.796875 C 4.707031 -16.535156 6.71875 -17.40625 9.15625 -17.40625 C 11.394531 -17.40625 13.242188 -16.703125 14.703125 -15.296875 L 14.703125 -28.34375 L 20.53125 -28.34375 L 20.53125 0 L 14.765625 0 L 14.765625 -1.90625 L 14.703125 -1.90625 C 13.242188 -0.300781 11.394531 0.5 9.15625 0.5 C 6.71875 0.5 4.707031 -0.359375 3.125 -2.078125 Z M 8.09375 -11.296875 C 7.332031 -10.554688 6.953125 -9.601562 6.953125 -8.4375 C 6.953125 -7.269531 7.3125 -6.316406 8.03125 -5.578125 C 8.757812 -4.847656 9.71875 -4.484375 10.90625 -4.484375 C 12.050781 -4.484375 12.988281 -4.851562 13.71875 -5.59375 C 14.457031 -6.34375 14.828125 -7.289062 14.828125 -8.4375 C 14.828125 -9.601562 14.445312 -10.554688 13.6875 -11.296875 C 12.9375 -12.046875 12.007812 -12.421875 10.90625 -12.421875 C 9.789062 -12.421875 8.851562 -12.046875 8.09375 -11.296875 Z M 8.09375 -11.296875 "/></g></g></g><g fill="#004aad" fill-opacity="1"><g transform="translate(33.347678, 29.005831)"><g><path d="M 3.125 -2.078125 C 1.550781 -3.804688 0.765625 -5.921875 0.765625 -8.421875 C 0.765625 -10.929688 1.550781 -13.054688 3.125 -14.796875 C 4.707031 -16.535156 6.71875 -17.40625 9.15625 -17.40625 C 11.394531 -17.40625 13.242188 -16.703125 14.703125 -15.296875 L 14.703125 -16.90625 L 20.53125 -16.90625 L 20.53125 0 L 14.765625 0 L 14.765625 -1.90625 L 14.703125 -1.90625 C 13.242188 -0.300781 11.394531 0.5 9.15625 0.5 C 6.71875 0.5 4.707031 -0.359375 3.125 -2.078125 Z M 8.09375 -11.296875 C 7.332031 -10.554688 6.953125 -9.601562 6.953125 -8.4375 C 6.953125 -7.269531 7.3125 -6.316406 8.03125 -5.578125 C 8.757812 -4.847656 9.71875 -4.484375 10.90625 -4.484375 C 12.050781 -4.484375 12.988281 -4.851562 13.71875 -5.59375 C 14.457031 -6.34375 14.828125 -7.289062 14.828125 -8.4375 C 14.828125 -9.601562 14.445312 -10.554688 13.6875 -11.296875 C 12.9375 -12.046875 12.007812 -12.421875 10.90625 -12.421875 C 9.789062 -12.421875 8.851562 -12.046875 8.09375 -11.296875 Z M 8.09375 -11.296875 "/></g></g></g><g fill="#004aad" fill-opacity="1"><g transform="translate(52.755639, 29.005831)"><g><path d="M 2.96875 -16.90625 L 2.96875 -23.203125 L 8.796875 -23.203125 L 8.796875 -16.90625 L 12.359375 -16.90625 L 12.359375 -12.453125 L 8.796875 -12.453125 L 8.796875 -7.078125 C 8.796875 -5.523438 9.234375 -4.75 10.109375 -4.75 C 10.335938 -4.75 10.570312 -4.789062 10.8125 -4.875 C 11.050781 -4.96875 11.238281 -5.054688 11.375 -5.140625 L 11.5625 -5.265625 L 13.015625 -0.5625 C 11.765625 0.144531 10.335938 0.5 8.734375 0.5 C 7.628906 0.5 6.679688 0.304688 5.890625 -0.078125 C 5.109375 -0.460938 4.515625 -0.976562 4.109375 -1.625 C 3.703125 -2.28125 3.410156 -2.960938 3.234375 -3.671875 C 3.054688 -4.390625 2.96875 -5.15625 2.96875 -5.96875 L 2.96875 -12.453125 L 0.53125 -12.453125 L 0.53125 -16.90625 Z M 2.96875 -16.90625 "/></g></g></g><g fill="#004aad" fill-opacity="1"><g transform="translate(62.673537, 29.005831)"><g><path d="M 3.125 -2.078125 C 1.550781 -3.804688 0.765625 -5.921875 0.765625 -8.421875 C 0.765625 -10.929688 1.550781 -13.054688 3.125 -14.796875 C 4.707031 -16.535156 6.71875 -17.40625 9.15625 -17.40625 C 11.394531 -17.40625 13.242188 -16.703125 14.703125 -15.296875 L 14.703125 -16.90625 L 20.53125 -16.90625 L 20.53125 0 L 14.765625 0 L 14.765625 -1.90625 L 14.703125 -1.90625 C 13.242188 -0.300781 11.394531 0.5 9.15625 0.5 C 6.71875 0.5 4.707031 -0.359375 3.125 -2.078125 Z M 8.09375 -11.296875 C 7.332031 -10.554688 6.953125 -9.601562 6.953125 -8.4375 C 6.953125 -7.269531 7.3125 -6.316406 8.03125 -5.578125 C 8.757812 -4.847656 9.71875 -4.484375 10.90625 -4.484375 C 12.050781 -4.484375 12.988281 -4.851562 13.71875 -5.59375 C 14.457031 -6.34375 14.828125 -7.289062 14.828125 -8.4375 C 14.828125 -9.601562 14.445312 -10.554688 13.6875 -11.296875 C 12.9375 -12.046875 12.007812 -12.421875 10.90625 -12.421875 C 9.789062 -12.421875 8.851562 -12.046875 8.09375 -11.296875 Z M 8.09375 -11.296875 "/></g></g></g><g fill="#004aad" fill-opacity="1"><g transform="translate(22.578548, 39.605791)"><g><path d="M 7.15625 -3.796875 C 7.144531 -3.640625 7.078125 -3.503906 6.953125 -3.390625 C 6.828125 -3.273438 6.679688 -3.21875 6.515625 -3.21875 L 1.765625 -3.21875 C 1.828125 -2.5625 2.078125 -2.035156 2.515625 -1.640625 C 2.953125 -1.242188 3.484375 -1.046875 4.109375 -1.046875 C 4.546875 -1.046875 4.894531 -1.109375 5.15625 -1.234375 C 5.425781 -1.359375 5.664062 -1.519531 5.875 -1.71875 C 6.007812 -1.800781 6.140625 -1.84375 6.265625 -1.84375 C 6.421875 -1.84375 6.550781 -1.789062 6.65625 -1.6875 C 6.757812 -1.582031 6.8125 -1.457031 6.8125 -1.3125 C 6.8125 -1.125 6.722656 -0.953125 6.546875 -0.796875 C 6.285156 -0.535156 5.9375 -0.3125 5.5 -0.125 C 5.070312 0.0507812 4.632812 0.140625 4.1875 0.140625 C 3.457031 0.140625 2.8125 -0.0078125 2.25 -0.3125 C 1.695312 -0.625 1.269531 -1.050781 0.96875 -1.59375 C 0.675781 -2.144531 0.53125 -2.769531 0.53125 -3.46875 C 0.53125 -4.21875 0.679688 -4.878906 0.984375 -5.453125 C 1.296875 -6.023438 1.707031 -6.460938 2.21875 -6.765625 C 2.726562 -7.078125 3.273438 -7.234375 3.859375 -7.234375 C 4.429688 -7.234375 4.96875 -7.082031 5.46875 -6.78125 C 5.976562 -6.488281 6.382812 -6.082031 6.6875 -5.5625 C 6.988281 -5.039062 7.144531 -4.453125 7.15625 -3.796875 Z M 3.859375 -6.046875 C 3.347656 -6.046875 2.910156 -5.898438 2.546875 -5.609375 C 2.179688 -5.328125 1.941406 -4.890625 1.828125 -4.296875 L 5.796875 -4.296875 L 5.796875 -4.40625 C 5.753906 -4.882812 5.539062 -5.273438 5.15625 -5.578125 C 4.769531 -5.890625 4.335938 -6.046875 3.859375 -6.046875 Z M 3.859375 -6.046875 "/></g></g></g><g fill="#004aad" fill-opacity="1"><g transform="translate(35.039205, 39.605791)"><g><path d="M 6.09375 -1 C 6.195312 -0.894531 6.25 -0.769531 6.25 -0.625 C 6.25 -0.4375 6.179688 -0.273438 6.046875 -0.140625 C 5.910156 -0.015625 5.757812 0.046875 5.59375 0.046875 C 5.382812 0.046875 5.207031 -0.0507812 5.0625 -0.25 L 3.265625 -2.515625 L 1.484375 -0.25 C 1.421875 -0.15625 1.34375 -0.0820312 1.25 -0.03125 C 1.164062 0.0078125 1.070312 0.03125 0.96875 0.03125 C 0.8125 0.03125 0.664062 -0.0234375 0.53125 -0.140625 C 0.40625 -0.253906 0.34375 -0.390625 0.34375 -0.546875 C 0.34375 -0.703125 0.394531 -0.832031 0.5 -0.9375 L 2.515625 -3.46875 L 0.4375 -6.078125 C 0.351562 -6.191406 0.3125 -6.316406 0.3125 -6.453125 C 0.3125 -6.640625 0.375 -6.796875 0.5 -6.921875 C 0.632812 -7.046875 0.785156 -7.109375 0.953125 -7.109375 C 1.171875 -7.109375 1.347656 -7.019531 1.484375 -6.84375 L 3.328125 -4.5 L 5.0625 -6.828125 C 5.195312 -7.015625 5.367188 -7.109375 5.578125 -7.109375 C 5.753906 -7.109375 5.898438 -7.050781 6.015625 -6.9375 C 6.128906 -6.820312 6.1875 -6.691406 6.1875 -6.546875 C 6.1875 -6.367188 6.140625 -6.226562 6.046875 -6.125 L 4.046875 -3.59375 Z M 6.09375 -1 "/></g></g></g><g fill="#545454" fill-opacity="1"><g transform="translate(46.353779, 39.605791)"><g><path d="M 4.5 -7.1875 C 5.113281 -7.1875 5.664062 -7.03125 6.15625 -6.71875 C 6.65625 -6.40625 7.046875 -5.96875 7.328125 -5.40625 C 7.609375 -4.851562 7.75 -4.226562 7.75 -3.53125 C 7.75 -2.832031 7.609375 -2.207031 7.328125 -1.65625 C 7.046875 -1.101562 6.65625 -0.664062 6.15625 -0.34375 C 5.664062 -0.03125 5.125 0.125 4.53125 0.125 C 4.0625 0.125 3.625 0.0195312 3.21875 -0.1875 C 2.8125 -0.394531 2.484375 -0.644531 2.234375 -0.9375 L 2.234375 2.046875 C 2.234375 2.222656 2.171875 2.375 2.046875 2.5 C 1.929688 2.632812 1.78125 2.703125 1.59375 2.703125 C 1.414062 2.703125 1.265625 2.640625 1.140625 2.515625 C 1.015625 2.390625 0.953125 2.234375 0.953125 2.046875 L 0.953125 -6.4375 C 0.953125 -6.625 1.007812 -6.78125 1.125 -6.90625 C 1.25 -7.03125 1.40625 -7.09375 1.59375 -7.09375 C 1.78125 -7.09375 1.929688 -7.03125 2.046875 -6.90625 C 2.171875 -6.78125 2.234375 -6.625 2.234375 -6.4375 L 2.234375 -6.046875 C 2.453125 -6.359375 2.765625 -6.625 3.171875 -6.84375 C 3.585938 -7.070312 4.03125 -7.1875 4.5 -7.1875 Z M 4.359375 -1.0625 C 4.765625 -1.0625 5.132812 -1.171875 5.46875 -1.390625 C 5.800781 -1.609375 6.0625 -1.898438 6.25 -2.265625 C 6.4375 -2.640625 6.53125 -3.0625 6.53125 -3.53125 C 6.53125 -4 6.4375 -4.421875 6.25 -4.796875 C 6.0625 -5.171875 5.800781 -5.460938 5.46875 -5.671875 C 5.132812 -5.890625 4.765625 -6 4.359375 -6 C 3.929688 -6 3.550781 -5.890625 3.21875 -5.671875 C 2.882812 -5.460938 2.625 -5.171875 2.4375 -4.796875 C 2.257812 -4.421875 2.171875 -4 2.171875 -3.53125 C 2.171875 -3.0625 2.257812 -2.640625 2.4375 -2.265625 C 2.625 -1.890625 2.882812 -1.59375 3.21875 -1.375 C 3.550781 -1.164062 3.929688 -1.0625 4.359375 -1.0625 Z M 4.359375 -1.0625 "/></g></g></g><g fill="#545454" fill-opacity="1"><g transform="translate(59.407816, 39.605791)"><g><path d="M 4.484375 -7.234375 C 4.710938 -7.234375 4.910156 -7.171875 5.078125 -7.046875 C 5.253906 -6.921875 5.34375 -6.769531 5.34375 -6.59375 C 5.34375 -6.375 5.285156 -6.207031 5.171875 -6.09375 C 5.054688 -5.988281 4.921875 -5.9375 4.765625 -5.9375 C 4.679688 -5.9375 4.554688 -5.960938 4.390625 -6.015625 C 4.203125 -6.078125 4.054688 -6.109375 3.953125 -6.109375 C 3.671875 -6.109375 3.394531 -6.007812 3.125 -5.8125 C 2.863281 -5.625 2.648438 -5.359375 2.484375 -5.015625 C 2.316406 -4.679688 2.234375 -4.304688 2.234375 -3.890625 L 2.234375 -0.640625 C 2.234375 -0.460938 2.171875 -0.3125 2.046875 -0.1875 C 1.929688 -0.0625 1.78125 0 1.59375 0 C 1.40625 0 1.25 -0.0546875 1.125 -0.171875 C 1.007812 -0.296875 0.953125 -0.453125 0.953125 -0.640625 L 0.953125 -6.421875 C 0.953125 -6.597656 1.015625 -6.75 1.140625 -6.875 C 1.265625 -7 1.414062 -7.0625 1.59375 -7.0625 C 1.78125 -7.0625 1.929688 -7 2.046875 -6.875 C 2.171875 -6.75 2.234375 -6.597656 2.234375 -6.421875 L 2.234375 -5.734375 C 2.429688 -6.171875 2.726562 -6.523438 3.125 -6.796875 C 3.519531 -7.078125 3.972656 -7.222656 4.484375 -7.234375 Z M 4.484375 -7.234375 "/></g></g></g><g fill="#545454" fill-opacity="1"><g transform="translate(69.751245, 39.605791)"><g><path d="M 7.15625 -3.796875 C 7.144531 -3.640625 7.078125 -3.503906 6.953125 -3.390625 C 6.828125 -3.273438 6.679688 -3.21875 6.515625 -3.21875 L 1.765625 -3.21875 C 1.828125 -2.5625 2.078125 -2.035156 2.515625 -1.640625 C 2.953125 -1.242188 3.484375 -1.046875 4.109375 -1.046875 C 4.546875 -1.046875 4.894531 -1.109375 5.15625 -1.234375 C 5.425781 -1.359375 5.664062 -1.519531 5.875 -1.71875 C 6.007812 -1.800781 6.140625 -1.84375 6.265625 -1.84375 C 6.421875 -1.84375 6.550781 -1.789062 6.65625 -1.6875 C 6.757812 -1.582031 6.8125 -1.457031 6.8125 -1.3125 C 6.8125 -1.125 6.722656 -0.953125 6.546875 -0.796875 C 6.285156 -0.535156 5.9375 -0.3125 5.5 -0.125 C 5.070312 0.0507812 4.632812 0.140625 4.1875 0.140625 C 3.457031 0.140625 2.8125 -0.0078125 2.25 -0.3125 C 1.695312 -0.625 1.269531 -1.050781 0.96875 -1.59375 C 0.675781 -2.144531 0.53125 -2.769531 0.53125 -3.46875 C 0.53125 -4.21875 0.679688 -4.878906 0.984375 -5.453125 C 1.296875 -6.023438 1.707031 -6.460938 2.21875 -6.765625 C 2.726562 -7.078125 3.273438 -7.234375 3.859375 -7.234375 C 4.429688 -7.234375 4.96875 -7.082031 5.46875 -6.78125 C 5.976562 -6.488281 6.382812 -6.082031 6.6875 -5.5625 C 6.988281 -5.039062 7.144531 -4.453125 7.15625 -3.796875 Z M 3.859375 -6.046875 C 3.347656 -6.046875 2.910156 -5.898438 2.546875 -5.609375 C 2.179688 -5.328125 1.941406 -4.890625 1.828125 -4.296875 L 5.796875 -4.296875 L 5.796875 -4.40625 C 5.753906 -4.882812 5.539062 -5.273438 5.15625 -5.578125 C 4.769531 -5.890625 4.335938 -6.046875 3.859375 -6.046875 Z M 3.859375 -6.046875 "/></g></g></g><g fill="#545454" fill-opacity="1"><g transform="translate(82.211901, 39.605791)"><g><path d="M 0.546875 -1.109375 C 0.472656 -1.234375 0.4375 -1.351562 0.4375 -1.46875 C 0.4375 -1.644531 0.53125 -1.796875 0.71875 -1.921875 C 0.800781 -1.984375 0.90625 -2.015625 1.03125 -2.015625 C 1.1875 -2.015625 1.332031 -1.953125 1.46875 -1.828125 C 1.738281 -1.515625 2.03125 -1.28125 2.34375 -1.125 C 2.65625 -0.976562 3.023438 -0.90625 3.453125 -0.90625 C 3.796875 -0.914062 4.097656 -0.992188 4.359375 -1.140625 C 4.617188 -1.285156 4.75 -1.523438 4.75 -1.859375 C 4.75 -2.160156 4.613281 -2.394531 4.34375 -2.5625 C 4.082031 -2.726562 3.695312 -2.875 3.1875 -3 C 2.675781 -3.132812 2.253906 -3.273438 1.921875 -3.421875 C 1.585938 -3.578125 1.304688 -3.796875 1.078125 -4.078125 C 0.847656 -4.359375 0.734375 -4.726562 0.734375 -5.1875 C 0.734375 -5.59375 0.847656 -5.945312 1.078125 -6.25 C 1.304688 -6.5625 1.613281 -6.800781 2 -6.96875 C 2.382812 -7.144531 2.800781 -7.234375 3.25 -7.234375 C 3.675781 -7.234375 4.101562 -7.148438 4.53125 -6.984375 C 4.957031 -6.828125 5.304688 -6.582031 5.578125 -6.25 C 5.691406 -6.113281 5.75 -5.984375 5.75 -5.859375 C 5.75 -5.710938 5.675781 -5.570312 5.53125 -5.4375 C 5.4375 -5.351562 5.320312 -5.3125 5.1875 -5.3125 C 5.03125 -5.3125 4.898438 -5.363281 4.796875 -5.46875 C 4.609375 -5.6875 4.375 -5.851562 4.09375 -5.96875 C 3.820312 -6.09375 3.523438 -6.15625 3.203125 -6.15625 C 2.859375 -6.15625 2.566406 -6.082031 2.328125 -5.9375 C 2.085938 -5.800781 1.96875 -5.566406 1.96875 -5.234375 C 1.976562 -4.921875 2.113281 -4.6875 2.375 -4.53125 C 2.644531 -4.375 3.050781 -4.222656 3.59375 -4.078125 C 4.070312 -3.953125 4.46875 -3.816406 4.78125 -3.671875 C 5.101562 -3.535156 5.367188 -3.320312 5.578125 -3.03125 C 5.796875 -2.75 5.90625 -2.378906 5.90625 -1.921875 C 5.90625 -1.503906 5.78125 -1.140625 5.53125 -0.828125 C 5.289062 -0.515625 4.972656 -0.273438 4.578125 -0.109375 C 4.191406 0.0546875 3.78125 0.140625 3.34375 0.140625 C 2.78125 0.140625 2.253906 0.0390625 1.765625 -0.15625 C 1.285156 -0.351562 0.878906 -0.671875 0.546875 -1.109375 Z M 0.546875 -1.109375 "/></g></g></g><g fill="#545454" fill-opacity="1"><g transform="translate(93.41841, 39.605791)"><g><path d="M 0.546875 -1.109375 C 0.472656 -1.234375 0.4375 -1.351562 0.4375 -1.46875 C 0.4375 -1.644531 0.53125 -1.796875 0.71875 -1.921875 C 0.800781 -1.984375 0.90625 -2.015625 1.03125 -2.015625 C 1.1875 -2.015625 1.332031 -1.953125 1.46875 -1.828125 C 1.738281 -1.515625 2.03125 -1.28125 2.34375 -1.125 C 2.65625 -0.976562 3.023438 -0.90625 3.453125 -0.90625 C 3.796875 -0.914062 4.097656 -0.992188 4.359375 -1.140625 C 4.617188 -1.285156 4.75 -1.523438 4.75 -1.859375 C 4.75 -2.160156 4.613281 -2.394531 4.34375 -2.5625 C 4.082031 -2.726562 3.695312 -2.875 3.1875 -3 C 2.675781 -3.132812 2.253906 -3.273438 1.921875 -3.421875 C 1.585938 -3.578125 1.304688 -3.796875 1.078125 -4.078125 C 0.847656 -4.359375 0.734375 -4.726562 0.734375 -5.1875 C 0.734375 -5.59375 0.847656 -5.945312 1.078125 -6.25 C 1.304688 -6.5625 1.613281 -6.800781 2 -6.96875 C 2.382812 -7.144531 2.800781 -7.234375 3.25 -7.234375 C 3.675781 -7.234375 4.101562 -7.148438 4.53125 -6.984375 C 4.957031 -6.828125 5.304688 -6.582031 5.578125 -6.25 C 5.691406 -6.113281 5.75 -5.984375 5.75 -5.859375 C 5.75 -5.710938 5.675781 -5.570312 5.53125 -5.4375 C 5.4375 -5.351562 5.320312 -5.3125 5.1875 -5.3125 C 5.03125 -5.3125 4.898438 -5.363281 4.796875 -5.46875 C 4.609375 -5.6875 4.375 -5.851562 4.09375 -5.96875 C 3.820312 -6.09375 3.523438 -6.15625 3.203125 -6.15625 C 2.859375 -6.15625 2.566406 -6.082031 2.328125 -5.9375 C 2.085938 -5.800781 1.96875 -5.566406 1.96875 -5.234375 C 1.976562 -4.921875 2.113281 -4.6875 2.375 -4.53125 C 2.644531 -4.375 3.050781 -4.222656 3.59375 -4.078125 C 4.070312 -3.953125 4.46875 -3.816406 4.78125 -3.671875 C 5.101562 -3.535156 5.367188 -3.320312 5.578125 -3.03125 C 5.796875 -2.75 5.90625 -2.378906 5.90625 -1.921875 C 5.90625 -1.503906 5.78125 -1.140625 5.53125 -0.828125 C 5.289062 -0.515625 4.972656 -0.273438 4.578125 -0.109375 C 4.191406 0.0546875 3.78125 0.140625 3.34375 0.140625 C 2.78125 0.140625 2.253906 0.0390625 1.765625 -0.15625 C 1.285156 -0.351562 0.878906 -0.671875 0.546875 -1.109375 Z M 0.546875 -1.109375 "/></g></g></g><g fill="#545454" fill-opacity="1"><g transform="translate(104.624919, 39.605791)"><g><path d="M 2.171875 -0.640625 C 2.171875 -0.460938 2.109375 -0.3125 1.984375 -0.1875 C 1.867188 -0.0625 1.71875 0 1.53125 0 C 1.34375 0 1.1875 -0.0625 1.0625 -0.1875 C 0.945312 -0.3125 0.890625 -0.460938 0.890625 -0.640625 L 0.890625 -6.484375 C 0.890625 -6.660156 0.945312 -6.8125 1.0625 -6.9375 C 1.1875 -7.070312 1.34375 -7.140625 1.53125 -7.140625 C 1.71875 -7.140625 1.867188 -7.070312 1.984375 -6.9375 C 2.109375 -6.8125 2.171875 -6.660156 2.171875 -6.484375 Z M 1.515625 -8.015625 C 1.253906 -8.015625 1.066406 -8.0625 0.953125 -8.15625 C 0.847656 -8.257812 0.796875 -8.410156 0.796875 -8.609375 L 0.796875 -8.828125 C 0.796875 -9.046875 0.851562 -9.195312 0.96875 -9.28125 C 1.09375 -9.375 1.28125 -9.421875 1.53125 -9.421875 C 1.78125 -9.421875 1.960938 -9.375 2.078125 -9.28125 C 2.191406 -9.1875 2.25 -9.035156 2.25 -8.828125 L 2.25 -8.609375 C 2.25 -8.398438 2.1875 -8.25 2.0625 -8.15625 C 1.945312 -8.0625 1.765625 -8.015625 1.515625 -8.015625 Z M 1.515625 -8.015625 "/></g></g></g><g fill="#545454" fill-opacity="1"><g transform="translate(112.460016, 39.605791)"><g><path d="M 7.640625 -3.53125 C 7.640625 -2.832031 7.484375 -2.203125 7.171875 -1.640625 C 6.859375 -1.085938 6.425781 -0.648438 5.875 -0.328125 C 5.332031 -0.015625 4.734375 0.140625 4.078125 0.140625 C 3.421875 0.140625 2.820312 -0.015625 2.28125 -0.328125 C 1.738281 -0.648438 1.3125 -1.085938 1 -1.640625 C 0.6875 -2.203125 0.53125 -2.832031 0.53125 -3.53125 C 0.53125 -4.226562 0.6875 -4.859375 1 -5.421875 C 1.3125 -5.992188 1.738281 -6.4375 2.28125 -6.75 C 2.820312 -7.070312 3.421875 -7.234375 4.078125 -7.234375 C 4.734375 -7.234375 5.332031 -7.070312 5.875 -6.75 C 6.425781 -6.4375 6.859375 -5.992188 7.171875 -5.421875 C 7.484375 -4.859375 7.640625 -4.226562 7.640625 -3.53125 Z M 6.359375 -3.53125 C 6.359375 -4.019531 6.257812 -4.453125 6.0625 -4.828125 C 5.863281 -5.210938 5.585938 -5.507812 5.234375 -5.71875 C 4.890625 -5.9375 4.503906 -6.046875 4.078125 -6.046875 C 3.660156 -6.046875 3.273438 -5.9375 2.921875 -5.71875 C 2.578125 -5.507812 2.304688 -5.210938 2.109375 -4.828125 C 1.910156 -4.453125 1.8125 -4.019531 1.8125 -3.53125 C 1.8125 -3.050781 1.910156 -2.625 2.109375 -2.25 C 2.304688 -1.875 2.578125 -1.578125 2.921875 -1.359375 C 3.273438 -1.148438 3.660156 -1.046875 4.078125 -1.046875 C 4.503906 -1.046875 4.890625 -1.148438 5.234375 -1.359375 C 5.585938 -1.578125 5.863281 -1.875 6.0625 -2.25 C 6.257812 -2.625 6.359375 -3.050781 6.359375 -3.53125 Z M 6.359375 -3.53125 "/></g></g></g><g fill="#545454" fill-opacity="1"><g transform="translate(125.406156, 39.605791)"><g><path d="M 4.5625 -7.234375 C 6.175781 -7.234375 6.984375 -6.257812 6.984375 -4.3125 L 6.984375 -0.640625 C 6.984375 -0.460938 6.921875 -0.3125 6.796875 -0.1875 C 6.679688 -0.0625 6.53125 0 6.34375 0 C 6.15625 0 6 -0.0625 5.875 -0.1875 C 5.757812 -0.3125 5.703125 -0.460938 5.703125 -0.640625 L 5.703125 -4.296875 C 5.703125 -4.828125 5.578125 -5.25 5.328125 -5.5625 C 5.085938 -5.882812 4.695312 -6.046875 4.15625 -6.046875 C 3.789062 -6.046875 3.460938 -5.960938 3.171875 -5.796875 C 2.878906 -5.640625 2.648438 -5.429688 2.484375 -5.171875 C 2.316406 -4.910156 2.234375 -4.617188 2.234375 -4.296875 L 2.234375 -0.640625 C 2.234375 -0.460938 2.171875 -0.3125 2.046875 -0.1875 C 1.929688 -0.0625 1.78125 0 1.59375 0 C 1.40625 0 1.25 -0.0546875 1.125 -0.171875 C 1.007812 -0.296875 0.953125 -0.453125 0.953125 -0.640625 L 0.953125 -6.421875 C 0.953125 -6.597656 1.015625 -6.75 1.140625 -6.875 C 1.265625 -7 1.414062 -7.0625 1.59375 -7.0625 C 1.78125 -7.0625 1.929688 -7 2.046875 -6.875 C 2.171875 -6.75 2.234375 -6.597656 2.234375 -6.421875 L 2.234375 -5.953125 C 2.472656 -6.304688 2.800781 -6.609375 3.21875 -6.859375 C 3.632812 -7.109375 4.082031 -7.234375 4.5625 -7.234375 Z M 4.5625 -7.234375 "/></g></g></g><g fill="#545454" fill-opacity="1"><g transform="translate(138.123052, 39.605791)"><g><path d="M 0.546875 -1.109375 C 0.472656 -1.234375 0.4375 -1.351562 0.4375 -1.46875 C 0.4375 -1.644531 0.53125 -1.796875 0.71875 -1.921875 C 0.800781 -1.984375 0.90625 -2.015625 1.03125 -2.015625 C 1.1875 -2.015625 1.332031 -1.953125 1.46875 -1.828125 C 1.738281 -1.515625 2.03125 -1.28125 2.34375 -1.125 C 2.65625 -0.976562 3.023438 -0.90625 3.453125 -0.90625 C 3.796875 -0.914062 4.097656 -0.992188 4.359375 -1.140625 C 4.617188 -1.285156 4.75 -1.523438 4.75 -1.859375 C 4.75 -2.160156 4.613281 -2.394531 4.34375 -2.5625 C 4.082031 -2.726562 3.695312 -2.875 3.1875 -3 C 2.675781 -3.132812 2.253906 -3.273438 1.921875 -3.421875 C 1.585938 -3.578125 1.304688 -3.796875 1.078125 -4.078125 C 0.847656 -4.359375 0.734375 -4.726562 0.734375 -5.1875 C 0.734375 -5.59375 0.847656 -5.945312 1.078125 -6.25 C 1.304688 -6.5625 1.613281 -6.800781 2 -6.96875 C 2.382812 -7.144531 2.800781 -7.234375 3.25 -7.234375 C 3.675781 -7.234375 4.101562 -7.148438 4.53125 -6.984375 C 4.957031 -6.828125 5.304688 -6.582031 5.578125 -6.25 C 5.691406 -6.113281 5.75 -5.984375 5.75 -5.859375 C 5.75 -5.710938 5.675781 -5.570312 5.53125 -5.4375 C 5.4375 -5.351562 5.320312 -5.3125 5.1875 -5.3125 C 5.03125 -5.3125 4.898438 -5.363281 4.796875 -5.46875 C 4.609375 -5.6875 4.375 -5.851562 4.09375 -5.96875 C 3.820312 -6.09375 3.523438 -6.15625 3.203125 -6.15625 C 2.859375 -6.15625 2.566406 -6.082031 2.328125 -5.9375 C 2.085938 -5.800781 1.96875 -5.566406 1.96875 -5.234375 C 1.976562 -4.921875 2.113281 -4.6875 2.375 -4.53125 C 2.644531 -4.375 3.050781 -4.222656 3.59375 -4.078125 C 4.070312 -3.953125 4.46875 -3.816406 4.78125 -3.671875 C 5.101562 -3.535156 5.367188 -3.320312 5.578125 -3.03125 C 5.796875 -2.75 5.90625 -2.378906 5.90625 -1.921875 C 5.90625 -1.503906 5.78125 -1.140625 5.53125 -0.828125 C 5.289062 -0.515625 4.972656 -0.273438 4.578125 -0.109375 C 4.191406 0.0546875 3.78125 0.140625 3.34375 0.140625 C 2.78125 0.140625 2.253906 0.0390625 1.765625 -0.15625 C 1.285156 -0.351562 0.878906 -0.671875 0.546875 -1.109375 Z M 0.546875 -1.109375 "/></g></g></g></svg>